HIERARCHY
ROOT Hips
{
	OFFSET	0.00	0.00	0.00
	CHANNELS 6 Xposition Yposition Zposition Zrotation Xrotation Yrotation
	JOINT LeftUpLeg
	{
		OFFSET	 0.126116	-0.014019	-0.065224
		CHANNELS 3 Zrotation Xrotation Yrotation
		JOINT LeftLeg
		{
			OFFSET	 0.000000	 0.000000	 0.569914
			CHANNELS 3 Zrotation Xrotation Yrotation
			JOINT LeftFoot
			{
				OFFSET	 0.000000	 0.000000	 0.544423
				CHANNELS 3 Zrotation Xrotation Yrotation
				JOINT LeftToeBase
				{
					OFFSET	 0.000000	 0.000000	 0.207117
					CHANNELS 3 Zrotation Xrotation Yrotation
					End Site
					{
						OFFSET	 0.000000	 0.000000	 0.207117
					}
				}
			}
		}
	}
	JOINT RightUpLeg
	{
		OFFSET	-0.124023	-0.008373	-0.065224
		CHANNELS 3 Zrotation Xrotation Yrotation
		JOINT RightLeg
		{
			OFFSET	 0.000000	 0.000000	 0.570047
			CHANNELS 3 Zrotation Xrotation Yrotation
			JOINT RightFoot
			{
				OFFSET	 0.000000	 0.000000	 0.544354
				CHANNELS 3 Zrotation Xrotation Yrotation
				JOINT RightToeBase
				{
					OFFSET	 0.000000	 0.000000	 0.207540
					CHANNELS 3 Zrotation Xrotation Yrotation
					End Site
					{
						OFFSET	 0.000000	 0.000000	 0.207540
					}
				}
			}
		}
	}
	JOINT Spine
	{
		OFFSET	 0.000184	-0.007763	 0.117403
		CHANNELS 3 Zrotation Xrotation Yrotation
		JOINT Spine1
		{
			OFFSET	 0.000000	 0.000000	 0.137269
			CHANNELS 3 Zrotation Xrotation Yrotation
			JOINT Spine2
			{
				OFFSET	 0.000000	 0.000000	 0.156879
				CHANNELS 3 Zrotation Xrotation Yrotation
				JOINT LeftShoulder
				{
					OFFSET	 0.080501	-0.002496	 0.160144
					CHANNELS 3 Zrotation Xrotation Yrotation
					JOINT LeftArm
					{
						OFFSET	 0.000000	 0.000000	 0.164363
						CHANNELS 3 Zrotation Xrotation Yrotation
						JOINT LeftForeArm
						{
							OFFSET	 0.000000	 0.000000	 0.364576
							CHANNELS 3 Zrotation Xrotation Yrotation
							JOINT LeftHand
							{
								OFFSET	 0.000000	 0.000000	 0.360812
								CHANNELS 3 Zrotation Xrotation Yrotation
								JOINT LeftHandIndex1
								{
									OFFSET	 0.000000	 0.000000	 0.086006
									CHANNELS 3 Zrotation Xrotation Yrotation
									JOINT LeftHandIndex2
									{
										OFFSET	 0.000000	 0.000000	 0.047236
										CHANNELS 3 Zrotation Xrotation Yrotation
										JOINT LeftHandIndex3
										{
											OFFSET	-0.004284	-0.000551	 0.038166
											CHANNELS 3 Zrotation Xrotation Yrotation
											End Site
											{
												OFFSET	-0.004284	-0.000551	 0.038166
											}
										}
									}
								}
							}
						}
					}
				}
				JOINT Neck
				{
					OFFSET	 0.000000	 0.000000	 0.176489
					CHANNELS 3 Zrotation Xrotation Yrotation
					JOINT Head
					{
						OFFSET	 0.000000	-0.001747	 0.077940
						CHANNELS 3 Zrotation Xrotation Yrotation
						End Site
						{
							OFFSET	 0.000000	-0.001747	 0.077940
						}
					}
				}
				JOINT RightShoulder
				{
					OFFSET	-0.080363	 0.000306	 0.159706
					CHANNELS 3 Zrotation Xrotation Yrotation
					JOINT RightArm
					{
						OFFSET	 0.000000	 0.000000	 0.164196
						CHANNELS 3 Zrotation Xrotation Yrotation
						JOINT RightForeArm
						{
							OFFSET	 0.000000	 0.000000	 0.365611
							CHANNELS 3 Zrotation Xrotation Yrotation
							JOINT RightHand
							{
								OFFSET	 0.000000	 0.000000	 0.360648
								CHANNELS 3 Zrotation Xrotation Yrotation
								JOINT RightHandIndex1
								{
									OFFSET	 0.000000	 0.000000	 0.069977
									CHANNELS 3 Zrotation Xrotation Yrotation
									JOINT RightHandIndex2
									{
										OFFSET	 0.000000	 0.000000	 0.052305
										CHANNELS 3 Zrotation Xrotation Yrotation
										JOINT RightHandIndex3
										{
											OFFSET	 0.009002	-0.000782	 0.042196
											CHANNELS 3 Zrotation Xrotation Yrotation
											End Site
											{
												OFFSET	 0.009002	-0.000782	 0.042196
											}
										}
									}
								}
							}
						}
					}
				}
			}
		}
	}
}
MOTION
Frames:    12
Frame Time: 0.03333334
 0.000105	 0.017584	 1.300342	-0.002850	 0.007060	 0.099669	-5.434465	-1.758593	 178.897100	 1.469279	-12.272780	-0.717053	-5.246773	 65.894350	-0.924251	-2.385833	 28.452760	 0.000004	 5.310445	-1.996595	-179.041800	-1.456366	-12.241200	 0.702004	 5.077445	 65.713360	 0.942211	 2.384658	 28.388730	 0.000004	-14.650740	 2.711177	 0.190233	-1.122247	 3.676580	-0.417399	 3.410486	-4.647789	 0.737164	-91.776200	 78.527470	 180.000000	 53.145550	 38.131080	-53.861940	-20.025670	 2.475121	-10.737030	-37.488630	 8.616106	-2.936543	-2.635965	 4.993658	 6.788941	-5.165319	 0.784187	 3.516649	-5.225038	 0.466231	 0.424329	-0.000002	-3.783157	-0.089647	 3.315548	 4.944235	-0.143197	 89.782070	 78.203890	-180.000000	 0.166550	 12.412640	 109.353500	-22.432050	 2.134149	 10.807500	 13.598310	 6.418859	-7.286315	 6.112037	 4.509576	-0.364401	 4.968462	 1.518543	-9.347576	 5.168945	 0.703820	 2.021906
 0.000090	 0.017473	 1.302289	-0.002849	 0.007057	 0.099632	-5.263043	-1.763370	 178.884400	 1.469282	-12.272660	-0.717045	-5.246842	 65.585300	-0.914125	-2.385833	 28.452760	 0.000004	 5.139094	-2.000970	-179.029900	-1.456368	-12.241200	 0.702002	 5.076478	 65.404780	 0.933500	 2.384658	 28.388730	 0.000004	-14.661560	 2.711181	 0.190270	-1.122251	 3.676586	-0.417372	 3.410486	-4.647800	 0.737152	-91.776130	 78.527450	 179.999900	 53.146080	 38.098500	-53.843900	-20.210970	 2.547517	-10.896270	-36.807580	 8.825647	-3.001005	-2.635965	 4.993658	 6.788941	-5.165319	 0.784187	 3.516649	-5.225038	 0.466231	 0.424329	-0.000002	-3.783157	-0.089647	 3.315550	 4.944234	-0.143197	 89.782100	 78.203900	 180.000000	 0.192878	 12.617350	 109.380600	-22.399950	 2.204785	 10.968310	 12.989330	 6.613712	-7.296556	 6.112037	 4.509576	-0.364401	 4.968462	 1.518543	-9.347576	 5.168945	 0.703820	 2.021906
 0.000083	 0.017346	 1.304263	-0.002849	 0.007058	 0.099671	-5.084339	-1.768513	 178.871100	 1.469276	-12.272780	-0.717051	-5.246303	 65.263560	-0.903911	-2.385833	 28.452760	 0.000004	 4.960493	-2.005566	-179.017500	-1.456369	-12.241200	 0.702003	 5.074904	 65.083440	 0.924760	 2.384658	 28.388730	 0.000004	-14.628640	 2.711180	 0.190231	-1.122248	 3.676592	-0.417379	 3.410486	-4.647800	 0.737155	-91.776120	 78.527470	 179.999900	 53.201410	 38.080430	-53.904470	-20.408080	 2.625982	-11.065780	-35.967860	 8.286484	-3.199309	-2.635965	 4.993658	 6.788941	-5.165319	 0.784187	 3.516649	-5.225038	 0.466231	 0.424329	-0.000002	-3.783157	-0.089647	 3.315548	 4.944234	-0.143197	 89.782100	 78.203900	 180.000000	 0.098596	 12.873220	 109.381600	-22.381830	 2.281677	 11.136290	 12.115780	 6.128394	-7.171633	 6.112037	 4.509576	-0.364401	 4.968462	 1.518543	-9.347576	 5.168945	 0.703820	 2.021906
 0.000111	 0.017192	 1.306006	-0.002849	 0.007058	 0.099671	-4.912139	-1.773451	 178.858400	 1.469280	-12.272790	-0.717053	-5.245140	 64.953800	-0.894471	-2.385833	 28.452760	 0.000004	 4.788386	-2.010088	-179.005500	-1.456368	-12.241310	 0.702010	 5.072800	 64.774170	 0.916666	 2.384658	 28.388730	 0.000004	-14.535860	 2.711179	 0.190231	-1.122247	 3.676588	-0.417370	 3.410482	-4.647799	 0.737150	-91.776050	 78.527470	 179.999900	 53.324150	 38.096530	-54.065870	-20.590610	 2.697651	-11.219460	-35.046170	 6.732440	-3.515111	-2.635965	 4.993658	 6.788941	-5.165319	 0.784187	 3.516649	-5.225038	 0.466231	 0.424329	-0.000002	-3.783157	-0.089647	 3.315552	 4.944232	-0.143197	 89.782070	 78.203920	-180.000000	 0.110961	 13.121460	 109.344400	-22.372890	 2.353671	 11.293170	 10.311840	 4.964429	-6.922780	 6.112037	 4.509576	-0.364401	 4.968462	 1.518543	-9.347576	 5.168945	 0.703820	 2.021906
 0.000155	 0.017028	 1.307700	-0.002850	 0.007060	 0.099669	-4.741047	-1.778382	 178.845800	 1.469278	-12.272760	-0.717052	-5.243413	 64.646270	-0.885450	-2.385833	 28.452760	 0.000004	 4.617360	-2.014513	-178.993700	-1.456367	-12.241200	 0.702003	 5.070131	 64.467060	 0.908973	 2.384658	 28.388730	 0.000004	-14.364970	 2.711176	 0.190233	-1.122247	 3.676590	-0.417375	 3.410485	-4.647800	 0.737153	-91.776150	 78.527450	 180.000000	 53.514870	 38.155340	-54.339620	-20.752440	 2.764668	-11.359250	-34.040840	 3.916717	-3.909571	-2.635965	 4.993658	 6.788941	-5.165319	 0.784187	 3.516649	-5.225038	 0.466231	 0.424329	-0.000002	-3.783157	-0.089647	 3.315548	 4.944235	-0.143197	 89.782060	 78.203870	-180.000000	-0.524828	 13.721120	 109.230200	-21.845150	 2.423013	 11.432900	 7.608058	 2.613351	-6.508741	 6.112037	 4.509576	-0.364401	 4.968462	 1.518543	-9.347576	 5.168945	 0.703820	 2.021906
 0.000154	 0.016930	 1.309903	-0.002849	 0.007058	 0.099671	-4.568871	-1.783421	 178.833100	 1.469278	-12.272800	-0.717052	-5.241061	 64.337200	-0.876720	-2.385833	 28.452760	 0.000004	 4.445301	-2.019055	-178.981700	-1.456368	-12.241200	 0.702003	 5.066951	 64.158370	 0.901512	 2.384658	 28.388730	 0.000004	-14.093180	 2.711181	 0.190231	-1.122247	 3.676598	-0.417364	 3.410476	-4.647802	 0.737144	-91.776100	 78.527430	 179.999900	 53.761390	 38.248580	-54.728570	-20.882560	 2.817590	-11.469250	-32.964990	-0.380262	-4.303357	-2.635965	 4.993658	 6.788941	-5.165319	 0.784187	 3.516649	-5.225038	 0.466231	 0.424329	-0.000002	-3.783157	-0.089647	 3.315548	 4.944235	-0.143197	 89.782100	 78.203900	 180.000000	-3.837566	 14.837120	 108.870400	-20.363850	 2.488379	 11.548690	 5.468351	-1.771262	-6.027144	 6.112037	 4.509576	-0.364401	 4.968462	 1.518543	-9.347576	 5.168945	 0.703820	 2.021906
 0.000122	 0.016870	 1.312772	-0.002849	 0.007058	 0.099671	-4.375483	-1.789029	 178.818800	 1.469283	-12.272660	-0.717045	-5.237741	 63.990260	-0.867318	-2.385833	 28.452760	 0.000004	 4.252059	-2.024133	-178.968400	-1.456370	-12.241080	 0.701997	 5.062750	 63.811970	 0.893503	 2.384658	 28.388730	 0.000004	-13.641300	 2.711180	 0.190231	-1.122247	 3.676589	-0.417374	 3.410483	-4.647799	 0.737152	-91.776080	 78.527430	 179.999900	 54.115140	 38.403690	-55.316280	-20.971480	 2.855805	-11.546890	-31.685470	-6.991122	-4.583651	-2.635965	 4.993658	 6.788941	-5.165319	 0.784187	 3.516649	-5.225038	 0.466231	 0.424329	-0.000002	-3.783157	-0.089647	 3.315550	 4.944232	-0.143197	 89.782070	 78.203900	-180.000000	-10.400410	 17.084770	 107.857800	-17.903220	 2.546303	 11.624180	 4.275214	-9.102772	-5.692122	 6.112037	 4.509576	-0.364401	 4.968462	 1.518543	-9.347576	 5.168945	 0.703820	 2.021906
 0.000115	 0.014453	 1.313809	-0.002849	 0.007058	 0.099671	-4.343259	-1.759776	 178.818600	 1.469315	-12.269860	-0.716876	-5.236948	 63.937540	-0.866229	-2.385833	 28.452760	 0.000004	 4.218234	-1.897913	-178.975100	-1.456428	-12.236610	 0.701732	 5.063413	 63.854770	 0.894406	 2.384658	 28.388730	 0.000004	-13.119840	 2.711181	 0.190231	-1.122247	 3.676597	-0.417374	 3.410480	-4.647803	 0.737147	-91.776120	 78.527470	 179.999900	 54.500980	 38.581070	-55.965660	-20.983700	 2.860430	-11.556620	-30.521430	-13.786070	-4.531040	-2.635965	 4.993658	 6.788941	-5.165319	 0.784187	 3.516649	-5.225038	 0.466231	 0.424329	-0.000002	-3.783157	-0.089647	 3.315549	 4.944235	-0.143197	 89.782040	 78.203850	-180.000000	-16.919510	 19.402650	 105.831000	-15.519920	 2.572031	 11.636430	 3.999433	-16.791000	-5.776011	 6.112037	 4.509576	-0.364401	 4.968462	 1.518543	-9.347576	 5.168945	 0.703820	 2.021906
 0.000112	 0.011156	 1.314342	-0.002849	 0.007058	 0.099671	-4.340976	-1.718044	 178.821300	 1.469373	-12.265640	-0.716622	-5.236602	 63.940260	-0.866785	-2.385833	 28.452760	 0.000004	 4.213634	-1.718880	-178.986900	-1.456605	-12.222400	 0.700892	 5.064008	 63.985130	 0.898742	 2.384658	 28.388730	 0.000004	-12.357740	 2.711180	 0.190231	-1.122246	 3.676595	-0.417381	 3.410488	-4.647806	 0.737155	-91.776120	 78.527470	 179.999900	 55.016450	 38.823760	-56.834520	-20.910500	 2.828532	-11.492070	-29.019450	-22.153870	-3.977168	-2.635965	 4.993658	 6.788941	-5.165319	 0.784187	 3.516649	-5.225038	 0.466231	 0.424329	-0.000002	-3.783157	-0.089647	 3.315550	 4.944234	-0.143197	 89.782100	 78.203870	-180.000000	-25.347320	 23.146710	 102.589800	-12.794310	 2.565739	 11.575490	 3.811359	-26.168360	-6.437605	 6.112037	 4.509576	-0.364401	 4.968462	 1.518543	-9.347576	 5.168945	 0.703820	 2.021906
 0.000111	 0.007767	 1.314503	-0.002849	 0.007058	 0.099671	-4.338639	-1.674824	 178.824000	 1.469431	-12.260830	-0.716331	-5.236187	 63.942840	-0.867433	-2.385833	 28.452760	 0.000004	 4.208797	-1.529327	-178.998700	-1.456917	-12.197230	 0.699403	 5.062920	 64.114070	 0.905030	 2.384658	 28.388730	 0.000004	-11.351030	 2.711181	 0.190231	-1.122249	 3.676590	-0.417364	 3.410476	-4.647798	 0.737144	-91.776120	 78.527450	 179.999900	 55.621620	 39.105790	-57.844930	-20.714870	 2.748168	-11.325650	-27.075640	-30.523870	-2.697403	-2.635965	 4.993658	 6.788941	-5.165319	 0.784187	 3.516649	-5.225038	 0.466231	 0.424329	-0.000002	-3.783157	-0.089647	 3.315549	 4.944235	-0.143197	 89.782090	 78.203870	-180.000000	-34.410390	 26.774320	 97.982620	-9.907302	 2.512148	 11.409840	 2.851047	-35.270640	-7.730477	 6.112037	 4.509576	-0.364401	 4.968462	 1.518543	-9.347576	 5.168945	 0.703820	 2.021906
 0.000130	 0.004723	 1.314938	-0.002849	 0.007058	 0.099671	-4.336597	-1.636984	 178.826400	 1.469494	-12.256050	-0.716043	-5.235734	 63.944750	-0.868097	-2.385833	 28.452760	 0.000004	 4.204526	-1.360572	-179.008500	-1.457296	-12.167000	 0.697617	 5.060626	 64.221860	 0.911949	 2.384658	 28.388730	 0.000004	-10.277430	 2.711181	 0.190231	-1.122249	 3.676592	-0.417366	 3.410486	-4.647803	 0.737149	-91.776120	 78.527430	 179.999900	 56.185730	 39.367220	-58.781810	-20.426370	 2.632826	-11.080740	-24.956700	-36.373730	-1.010966	-2.635965	 4.993658	 6.788941	-5.165319	 0.784187	 3.516649	-5.225038	 0.466231	 0.424329	-0.000002	-3.783157	-0.089647	 3.315550	 4.944232	-0.143197	 89.782080	 78.203890	-180.000000	-42.418490	 29.958480	 92.336200	-7.081191	 2.422989	 11.162620	 2.007591	-41.608870	-8.987020	 6.112037	 4.509576	-0.364401	 4.968462	 1.518543	-9.347576	 5.168945	 0.703820	 2.021906
 0.000133	 0.001290	 1.315283	-0.002849	 0.007058	 0.099671	-4.334273	-1.594171	 178.829000	 1.469569	-12.250310	-0.715699	-5.235137	 63.946730	-0.868916	-2.385833	 28.452760	 0.000004	 4.199634	-1.165804	-179.019300	-1.457838	-12.123470	 0.695045	 5.056475	 64.338490	 0.921416	 2.384658	 28.388730	 0.000004	-8.869293	 2.711181	 0.190231	-1.122248	 3.676600	-0.417364	 3.410476	-4.647803	 0.737144	-91.776080	 78.527450	 179.999900	 56.820310	 39.649640	-59.829140	-19.958090	 2.449270	-10.679310	-22.333450	-39.841770	 1.057682	-2.635965	 4.993658	 6.788941	-5.165319	 0.784187	 3.516649	-5.225038	 0.466231	 0.424329	-0.000002	-3.783157	-0.089647	 3.315549	 4.944235	-0.143197	 89.782100	 78.203900	 180.000000	-48.491720	 33.420690	 77.489700	-4.484259	 4.779200	 22.979450	 2.070400	-45.491920	-9.520226	 6.112037	 4.509576	-0.364401	 4.968462	 1.518543	-9.347576	 5.168945	 0.703820	 2.021906
